# xmcd
#
# Track frame offsets:
#	150
#	24605
#	46560
#	72587
#	101610
#	124455
#	149665
#	174575
#	192200
#	215447
#	245677
#	264950
#	289937
#	305867
#	328572
#
# Disc length: 4694 seconds
#
# Revision: 0
# Processed by: cddbd v1.5.2PL0 Copyright (c) Steve Scherf et al.
# Submitted via: EasyCDDAExtractor 15.1.0.1
#
DISCID=ed12540f
DTITLE=Mara Lima - Melhores Momentos Vol. 4
DYEAR=2008
DGENRE=Gospel
TTITLE0=Alem Da Medicina
TTITLE1=Uncao Divina
TTITLE2=Heroi Sem Medalha
TTITLE3=Daniel
TTITLE4=Dia De Sol
TTITLE5=Portais Eternos
TTITLE6=Vaso De Alabastro
TTITLE7=Poderoso E Tremendo
TTITLE8=Eu Profetizo
TTITLE9=Deus Determinou
TTITLE10=Dependo De Deus
TTITLE11=Homem Dos Milagres
TTITLE12=Lado A Lado
TTITLE13=Semente Do Sangue
TTITLE14=Varao De Branco
EXTD=
EXTT0=
EXTT1=
EXTT2=
EXTT3=
EXTT4=
EXTT5=
EXTT6=
EXTT7=
EXTT8=
EXTT9=
EXTT10=
EXTT11=
EXTT12=
EXTT13=
EXTT14=
PLAYORDER=
